<svg width="24" height="24" viewBox="0 0 24 24" fill="none" xmlns="http://www.w3.org/2000/svg">
<g clip-path="url(#clip0_21_134)">
<path d="M20 2H4C2.93913 2 1.92172 2.42143 1.17157 3.17157C0.421427 3.92172 0 4.93913 0 6L0 18C0 19.0609 0.421427 20.0783 1.17157 20.8284C1.92172 21.5786 2.93913 22 4 22H20C21.0609 22 22.0783 21.5786 22.8284 20.8284C23.5786 20.0783 24 19.0609 24 18V6C24 4.93913 23.5786 3.92172 22.8284 3.17157C22.0783 2.42143 21.0609 2 20 2ZM22 18C22 18.5304 21.7893 19.0391 21.4142 19.4142C21.0391 19.7893 20.5304 20 20 20H4C3.46957 20 2.96086 19.7893 2.58579 19.4142C2.21071 19.0391 2 18.5304 2 18V6C2 5.46957 2.21071 4.96086 2.58579 4.58579C2.96086 4.21071 3.46957 4 4 4H20C20.5304 4 21.0391 4.21071 21.4142 4.58579C21.7893 4.96086 22 5.46957 22 6V18Z" fill="black"/>
<path d="M19.7399 7.01695C19.6515 6.91974 19.5449 6.84089 19.4261 6.78491C19.3072 6.72893 19.1785 6.69692 19.0473 6.6907C18.9161 6.68448 18.7849 6.70417 18.6613 6.74865C18.5377 6.79314 18.4241 6.86154 18.3269 6.94995L13.3499 11.4789C12.9807 11.8152 12.4993 12.0015 11.9999 12.0015C11.5005 12.0015 11.0191 11.8152 10.6499 11.4789L5.67291 6.94995C5.47665 6.77146 5.21752 6.67824 4.95253 6.69081C4.68754 6.70337 4.4384 6.82069 4.25991 7.01695C4.08142 7.21321 3.9882 7.47234 4.00077 7.73733C4.00699 7.86853 4.03899 7.99723 4.09495 8.11607C4.15091 8.23491 4.22973 8.34157 4.32691 8.42995L8.28391 12.0299L4.32791 15.6199C4.22638 15.707 4.14334 15.8135 4.08371 15.9332C4.02407 16.0529 3.98905 16.1833 3.98071 16.3168C3.97237 16.4503 3.99088 16.584 4.03515 16.7102C4.07943 16.8364 4.14856 16.9524 4.23846 17.0514C4.32836 17.1504 4.4372 17.2304 4.55855 17.2866C4.6799 17.3428 4.81128 17.3741 4.94493 17.3786C5.07858 17.3831 5.21178 17.3608 5.33665 17.3129C5.46152 17.2651 5.57552 17.1926 5.67191 17.0999L9.81491 13.3399C10.4619 13.7716 11.2222 14.0019 11.9999 14.0019C12.7776 14.0019 13.5379 13.7716 14.1849 13.3399L18.3279 17.0999C18.4243 17.1926 18.5383 17.2651 18.6632 17.3129C18.788 17.3608 18.9212 17.3831 19.0549 17.3786C19.1885 17.3741 19.3199 17.3428 19.4413 17.2866C19.5626 17.2304 19.6715 17.1504 19.7614 17.0514C19.8513 16.9524 19.9204 16.8364 19.9647 16.7102C20.0089 16.584 20.0274 16.4503 20.0191 16.3168C20.0108 16.1833 19.9757 16.0529 19.9161 15.9332C19.8565 15.8135 19.7734 15.707 19.6719 15.6199L15.7169 12.0289L19.6729 8.42895C19.8689 8.25053 19.9861 8.00158 19.9987 7.73682C20.0112 7.47205 19.9182 7.21313 19.7399 7.01695Z" fill="black"/>
</g>
<defs>
<clipPath id="clip0_21_134">
<rect width="24" height="24" fill="white"/>
</clipPath>
</defs>
</svg>
