<svg width="24" height="24" viewBox="0 0 24 24" fill="none" xmlns="http://www.w3.org/2000/svg">
<path d="M14.5725 6.36847V7.91697V8.74097V9.98997H15.0215H16.795C17.302 9.98997 17.8245 9.98997 18.218 9.98997C18.0685 5.89397 14.5725 6.36847 14.5725 6.36847Z" fill="black"/>
<path d="M21.498 9.5C21.498 4.253 17.2445 0 11.998 0C6.75098 0 2.49798 4.253 2.49798 9.5C2.49798 9.5145 2.49998 9.5295 2.49998 9.544C2.49598 9.6505 2.49148 9.9645 2.54598 10.4575C2.54748 10.4745 2.55048 10.4915 2.55248 10.509C2.57598 10.711 2.61048 10.9415 2.65748 11.197C2.68398 11.3425 2.71298 11.4865 2.74598 11.629C3.33998 14.286 5.33948 19.084 11.996 23.995C11.9965 23.997 11.997 23.998 11.9975 24C11.998 23.999 11.999 23.999 12 23.998C12.0005 23.999 12.0015 23.999 12.002 24C12.0025 23.998 12.003 23.997 12.0035 23.995C18.7505 19.0165 20.7125 14.156 21.2765 11.5225C21.2905 11.456 21.3055 11.3895 21.318 11.3225C21.544 10.1755 21.498 9.5 21.498 9.5ZM7.53098 15C6.95198 15 6.48198 14.531 6.48198 13.9525C6.48198 13.372 6.95198 12.9015 7.53098 12.9015C8.11048 12.9015 8.57948 13.3715 8.57948 13.9525C8.57898 14.531 8.10998 15 7.53098 15ZM12.461 13.9525H9.53048C9.53898 13.8755 9.55298 13.8045 9.55298 13.7265C9.55298 12.636 8.66998 11.7535 7.58048 11.7535C6.49048 11.7535 5.60748 12.636 5.60748 13.7265C5.60748 13.8045 5.62098 13.8755 5.62998 13.9525H4.60848V6.2325C4.60848 4.1925 6.04598 3.509 6.72798 3.2985C6.75398 3.2925 7.11048 3.2125 7.92698 3.2125H12.461V13.9525ZM16.495 14.9595C15.915 14.9595 15.445 14.4905 15.445 13.9115C15.445 13.3315 15.9145 12.8605 16.495 12.8605C17.073 12.8605 17.544 13.331 17.544 13.9115C17.544 14.4905 17.073 14.9595 16.495 14.9595ZM19.3915 13.9595H18.5185C18.5185 12.8155 17.59 11.888 16.4455 11.888C15.3 11.888 14.373 12.815 14.3715 13.9595H13.4985V11.0635V10.4395V5.045H13.969C13.969 5.045 14.801 5.0445 15.5295 5.207C15.5755 5.2175 15.624 5.2305 15.671 5.2435C15.7275 5.2585 15.786 5.2715 15.839 5.288C16.513 5.491 17.2745 5.863 17.8685 6.543C18.9985 7.838 19.296 9.264 19.3685 10.439H19.392L19.3915 13.9595Z" fill="black"/>
</svg>
