<svg width="24" height="24" viewBox="0 0 24 24" fill="none" xmlns="http://www.w3.org/2000/svg">
<path d="M5.69988 10.8C5.59988 11.8 5.99988 12.7 6.59988 13.4L9.79989 16.6C10.3999 17.2 11.1999 17.6 12.0999 17.6C12.9999 17.6 13.7999 17.3 14.3999 16.6L20.7999 10.2C21.3999 9.59995 21.7999 8.79995 21.7999 7.89995C21.7999 6.99995 21.4999 6.19995 20.7999 5.59995L17.5999 2.39995C16.8999 1.69995 15.9999 1.39995 14.9999 1.49995C14.1999 1.59995 13.4999 1.89995 12.9999 2.39995L6.69988 8.79995C6.09988 9.29995 5.79988 10.1 5.69988 10.8ZM13.8999 4.39995L13.3999 8.39995C13.2999 8.89995 12.9999 9.19995 12.4999 9.29995L8.49988 9.79995L13.8999 4.39995ZM12.7999 11.2C14.1999 11 15.2999 9.99995 15.3999 8.59995L15.9999 3.69995C16.0999 3.69995 16.0999 3.79995 16.1999 3.79995L19.3999 6.99995C19.8999 7.49995 19.8999 8.29995 19.3999 8.79995L12.9999 15.2C12.4999 15.7 11.6999 15.7 11.1999 15.2L8.09989 12C7.99989 11.9 7.99988 11.8 7.89988 11.8L12.7999 11.2Z" fill="black"/>
<path d="M3 19C3.3 19 3.5 18.9 3.7 18.7L6.7 15.7C7.1 15.3 7.1 14.7 6.7 14.3C6.3 13.9 5.7 13.9 5.3 14.3L2.3 17.3C1.9 17.7 1.9 18.3 2.3 18.7C2.5 18.9 2.7 19 3 19Z" fill="black"/>
<path d="M7.7 19.7L8.7 18.7C9.1 18.3 9.1 17.7 8.7 17.3C8.3 16.9 7.7 16.9 7.3 17.3L6.3 18.3C5.9 18.7 5.9 19.3 6.3 19.7C6.5 19.9 6.7 20 7 20C7.3 20 7.5 19.9 7.7 19.7Z" fill="black"/>
</svg>
