<svg width="24" height="24" viewBox="0 0 24 24" fill="none" xmlns="http://www.w3.org/2000/svg">
<g clip-path="url(#clip0_21_142)">
<path d="M14.625 13.875C13.7977 13.875 13.125 14.5477 13.125 15.375V16.125H13.875V15.375C13.875 14.9614 14.2114 14.625 14.625 14.625C15.0386 14.625 15.375 14.9614 15.375 15.375V15.7024C15.375 15.8843 15.309 16.0597 15.1894 16.1962L12.75 18.9844V19.875H16.125V19.125H13.6234L15.7541 16.6901C15.993 16.4164 16.125 16.0658 16.125 15.7024V15.375C16.125 14.5477 15.4523 13.875 14.625 13.875Z" fill="black"/>
<path d="M20.625 18V13.875H19.6796L16.875 17.8819V18.75H19.875V19.875H20.625V18.75H21.375V18H20.625ZM19.875 18H17.7079L19.875 14.904V18Z" fill="black"/>
<path d="M20.5361 11.7975C20.5909 11.3677 20.625 10.9331 20.625 10.5C20.625 4.917 16.083 0.375 10.5 0.375C4.917 0.375 0.375 4.917 0.375 10.5C0.375 16.083 4.917 20.625 10.5 20.625C10.9335 20.625 11.3681 20.5909 11.7975 20.5358C12.915 22.3834 14.9377 23.625 17.25 23.625C20.7652 23.625 23.625 20.7652 23.625 17.25C23.625 14.9377 22.3834 12.915 20.5361 11.7975ZM10.5 19.875C5.33063 19.875 1.125 15.6694 1.125 10.5C1.125 5.33063 5.33063 1.125 10.5 1.125C15.6694 1.125 19.875 5.33063 19.875 10.5C19.875 10.8079 19.8544 11.1158 19.8244 11.4229C19.5885 11.3183 19.3463 11.2256 19.0965 11.1499C19.1134 10.9297 19.125 10.7115 19.125 10.5C19.125 5.74425 15.2561 1.875 10.5 1.875C5.74388 1.875 1.875 5.74425 1.875 10.5C1.875 15.2558 5.74388 19.125 10.5 19.125C10.7119 19.125 10.9301 19.1134 11.1499 19.0965C11.2256 19.3463 11.3179 19.5885 11.4229 19.8244C11.1161 19.8544 10.8079 19.875 10.5 19.875ZM10.875 17.25C10.875 17.6287 10.9144 17.9977 10.9781 18.3589C10.8161 18.369 10.6564 18.375 10.5 18.375C8.46375 18.375 6.61125 17.5912 5.21175 16.3181L6.25725 15.273L5.727 14.7428L4.6815 15.7879C3.48787 14.4758 2.73338 12.7631 2.64412 10.875H4.125V10.125H2.64412C2.73375 8.23688 3.48787 6.52425 4.68187 5.21212L5.72738 6.25725L6.25763 5.727L5.21212 4.68187C6.52425 3.48787 8.23688 2.73375 10.125 2.64412V4.125H10.875V2.64412C12.7631 2.73375 14.4757 3.48787 15.7882 4.68187L14.7428 5.727L15.273 6.25725L16.3185 5.21212C17.5912 6.61125 18.375 8.46375 18.375 10.5C18.375 10.656 18.369 10.8161 18.3589 10.9781C17.9981 10.9144 17.6287 10.875 17.25 10.875C13.7348 10.875 10.875 13.7348 10.875 17.25ZM17.25 22.875C14.1484 22.875 11.625 20.3516 11.625 17.25C11.625 14.1484 14.1484 11.625 17.25 11.625C20.3516 11.625 22.875 14.1484 22.875 17.25C22.875 20.3516 20.3516 22.875 17.25 22.875Z" fill="black"/>
<path d="M10.125 10.3448L8.35986 12.1099L8.89011 12.6401L10.875 10.6552V6.375H10.125V10.3448Z" fill="black"/>
</g>
<defs>
<clipPath id="clip0_21_142">
<rect width="24" height="24" fill="white"/>
</clipPath>
</defs>
</svg>
